<svg width="20" height="20" viewBox="0 0 20 20" fill="none" xmlns="http://www.w3.org/2000/svg">
<mask id="mask0_1_13" style="mask-type:alpha" maskUnits="userSpaceOnUse" x="0" y="0" width="20" height="20">
<rect width="19.8462" height="19.8462" fill="#D9D9D9"/>
</mask>
<g mask="url(#mask0_1_13)">
<path d="M9.09615 14.0577H10.75V10.75H14.0577V9.09615H10.75V5.78846H9.09615V9.09615H5.78846V10.75H9.09615V14.0577ZM9.92308 18.1923C8.77917 18.1923 7.70417 17.9751 6.69808 17.5407C5.69199 17.1068 4.81683 16.5178 4.0726 15.7736C3.32837 15.0293 2.73932 14.1542 2.30546 13.1481C1.87105 12.142 1.65385 11.067 1.65385 9.92308C1.65385 8.77917 1.87105 7.70417 2.30546 6.69808C2.73932 5.69199 3.32837 4.81683 4.0726 4.0726C4.81683 3.32837 5.69199 2.73905 6.69808 2.30464C7.70417 1.87078 8.77917 1.65385 9.92308 1.65385C11.067 1.65385 12.142 1.87078 13.1481 2.30464C14.1542 2.73905 15.0293 3.32837 15.7736 4.0726C16.5178 4.81683 17.1068 5.69199 17.5407 6.69808C17.9751 7.70417 18.1923 8.77917 18.1923 9.92308C18.1923 11.067 17.9751 12.142 17.5407 13.1481C17.1068 14.1542 16.5178 15.0293 15.7736 15.7736C15.0293 16.5178 14.1542 17.1068 13.1481 17.5407C12.142 17.9751 11.067 18.1923 9.92308 18.1923ZM9.92308 16.5385C11.7699 16.5385 13.3341 15.8976 14.6159 14.6159C15.8976 13.3341 16.5385 11.7699 16.5385 9.92308C16.5385 8.07628 15.8976 6.51202 14.6159 5.23029C13.3341 3.94856 11.7699 3.30769 9.92308 3.30769C8.07628 3.30769 6.51202 3.94856 5.23029 5.23029C3.94856 6.51202 3.30769 8.07628 3.30769 9.92308C3.30769 11.7699 3.94856 13.3341 5.23029 14.6159C6.51202 15.8976 8.07628 16.5385 9.92308 16.5385Z" fill="#C2C2C2"/>
</g>
</svg>
